<svg width="100" height="101" viewBox="0 0 100 101" fill="none" xmlns="http://www.w3.org/2000/svg">
<path d="M70.2576 81.5411C70.256 81.5411 70.2549 81.5395 70.2554 81.5381L82.4057 46.9326C82.8652 45.6237 84.7232 45.6439 85.1543 46.9624L96.5514 81.823C96.5519 81.8246 96.5507 81.8263 96.549 81.8263C96.5473 81.8262 96.5461 81.8279 96.5466 81.8295C97.0407 83.283 97.3012 84.8435 97.2836 86.4658C97.2002 94.1596 90.8956 100.329 83.2019 100.245C75.5082 100.162 69.3389 93.8574 69.4223 86.1636C69.4399 84.5412 69.7341 82.9866 70.2597 81.5441C70.2602 81.5427 70.2591 81.5411 70.2576 81.5411Z" fill="#2A2929"/>
<path d="M18.7052 29.9887C18.7052 29.9903 18.7068 29.9914 18.7082 29.9908L53.3137 17.8406C54.6226 17.381 54.6024 15.523 53.2839 15.092L18.4233 3.69492C18.4217 3.69439 18.42 3.6956 18.42 3.69728C18.4201 3.69897 18.4184 3.70017 18.4168 3.69963C16.9633 3.20553 15.4028 2.94511 13.7805 2.9627C6.08674 3.04611 -0.0826163 9.35069 0.000836764 17.0444C0.0842898 24.738 6.38895 30.9074 14.0827 30.824C15.7051 30.8064 17.2597 30.5122 18.7022 29.9866C18.7036 29.9861 18.7052 29.9872 18.7052 29.9887Z" fill="#2A2929"/>
<path d="M55.2708 81.0934C56.5695 82.3921 56.5695 84.4978 55.2708 85.7966C54.1974 86.8699 53.1418 87.962 51.9831 88.945C50.7552 89.9868 48.95 89.8124 47.8113 88.6737L11.2407 52.103C10.102 50.9644 9.92759 49.1592 10.9694 47.9312C11.9524 46.7726 13.0445 45.7169 14.1178 44.6436C15.4165 43.3448 17.5222 43.3448 18.821 44.6436L55.2708 81.0934Z" fill="#2A2929"/>
<path d="M34.9594 90.8627C36.8238 92.7271 35.849 95.8301 33.2124 95.8329C25.7547 95.8409 18.2945 92.9999 12.6045 87.3099C6.91448 81.6198 4.07347 74.1597 4.08146 66.702C4.08428 64.0653 7.18722 63.0906 9.05162 64.955L34.9594 90.8627Z" fill="#2A2929"/>
<path d="M73.279 36.3245C73.5952 36.8418 73.6478 37.4751 73.4469 38.0472L70.3688 46.8142C69.8566 48.273 67.9966 48.6965 66.9032 47.6032L52.3114 33.0114C51.2181 31.9181 51.6416 30.0581 53.1005 29.5458L61.8674 26.4677C62.4395 26.2668 63.0728 26.3195 63.5902 26.6357C65.5186 27.8143 67.3394 29.2379 69.0081 30.9065C70.6767 32.5752 72.1003 34.3961 73.279 36.3245Z" fill="#2A2929"/>
<path d="M64.4194 60.1618C64.9903 60.7326 65.184 61.5805 64.9101 62.3399C64.1269 64.5114 63.3026 66.6793 62.5555 68.8675C62.0387 70.3813 60.0921 70.8755 58.961 69.7445L30.1693 40.9527C29.0382 39.8216 29.5324 37.875 31.0462 37.3582C33.2344 36.6112 35.4024 35.7868 37.5739 35.0036C38.3333 34.7297 39.1811 34.9234 39.7519 35.4943L64.4194 60.1618Z" fill="#2A2929"/>
<path d="M80.5522 13.2527C77.4144 16.0049 72.6426 15.6888 69.8942 12.5466C67.1457 9.40443 67.4614 4.62611 70.5993 1.87393C73.7371 -0.878263 78.5089 -0.562123 81.2573 2.58004C84.0057 5.72221 83.69 10.5005 80.5522 13.2527Z" fill="#2A2929"/>
<path d="M97.3263 30.0268C94.1884 32.779 89.4167 32.4628 86.6682 29.3207C83.9198 26.1785 84.2355 21.4002 87.3733 18.648C90.5112 15.8958 95.2829 16.2119 98.0313 19.3541C100.78 22.4963 100.464 27.2746 97.3263 30.0268Z" fill="#2A2929"/>
</svg>
